<?xml version="1.0" encoding="utf-8"?>
<!-- Generator: Adobe Illustrator 26.2.1, SVG Export Plug-In . SVG Version: 6.00 Build 0)  -->
<svg version="1.1" id="Layer_1" xmlns="http://www.w3.org/2000/svg" xmlns:xlink="http://www.w3.org/1999/xlink" x="0px" y="0px"
	 viewBox="0 0 100 100" style="enable-background:new 0 0 100 100;" xml:space="preserve">
<style type="text/css">
	.st0{opacity:0.996;fill:url(#Ellipse_20_00000064318020462464878750000006840179730916056726_);enable-background:new    ;}
	.st1{fill:#FFFFFF;}
</style>
<g id="Group_50363" transform="translate(-86 -1914)">
	
		<linearGradient id="Ellipse_20_00000064345891642211785300000014963438006747410107_" gradientUnits="userSpaceOnUse" x1="-157.7349" y1="2381.062" x2="-158.3479" y2="2380.2681" gradientTransform="matrix(100 0 0 -100 15939 240031.9844)">
		<stop  offset="0" style="stop-color:#00549F"/>
		<stop  offset="0.379" style="stop-color:#004B89"/>
		<stop  offset="1" style="stop-color:#013757"/>
	</linearGradient>
	
		<circle id="Ellipse_20" style="opacity:0.996;fill:url(#Ellipse_20_00000064345891642211785300000014963438006747410107_);enable-background:new    ;" cx="136" cy="1964" r="50"/>
</g>
<g>
	<path class="st1" d="M24.2,47.8c0,1.5-0.5,2.6-1.4,3.3c-0.9,0.8-2.2,1.2-3.9,1.2h-1.2v4.8h-2.9V43.6h4.3c1.6,0,2.9,0.4,3.8,1.1
		C23.8,45.3,24.2,46.4,24.2,47.8z M17.7,49.9h0.9c0.9,0,1.5-0.2,2-0.5c0.4-0.3,0.7-0.9,0.7-1.5c0-0.7-0.2-1.2-0.6-1.5
		c-0.4-0.3-0.9-0.5-1.7-0.5h-1.3V49.9z"/>
	<path class="st1" d="M36.1,57.1h-2.8v-6.1c0-1.5-0.6-2.2-1.7-2.2c-0.8,0-1.4,0.3-1.7,0.8s-0.5,1.4-0.5,2.6v4.9h-2.8V42.7h2.8v2.9
		c0,0.2,0,0.8-0.1,1.6l-0.1,0.8h0.1c0.6-1,1.6-1.5,3-1.5c1.2,0,2.1,0.3,2.8,1c0.6,0.7,0.9,1.6,0.9,2.8V57.1z"/>
	<path class="st1" d="M45.6,57.1l-0.5-1.4H45c-0.5,0.6-1,1-1.5,1.2c-0.5,0.2-1.2,0.3-2,0.3c-1,0-1.8-0.3-2.4-0.9
		c-0.6-0.6-0.9-1.4-0.9-2.4c0-1.1,0.4-1.9,1.2-2.4c0.8-0.5,1.9-0.8,3.5-0.9l1.8-0.1v-0.5c0-1.1-0.5-1.6-1.6-1.6
		c-0.8,0-1.8,0.3-2.9,0.8l-0.9-1.9c1.2-0.6,2.5-0.9,4-0.9c1.4,0,2.5,0.3,3.2,0.9c0.7,0.6,1.1,1.5,1.1,2.8v6.9H45.6z M44.8,52.3
		l-1.1,0c-0.8,0-1.4,0.2-1.8,0.4c-0.4,0.3-0.6,0.7-0.6,1.2c0,0.8,0.5,1.2,1.4,1.2c0.7,0,1.2-0.2,1.6-0.6c0.4-0.4,0.6-0.9,0.6-1.5
		V52.3z"/>
	<path class="st1" d="M57.7,54c0,1.1-0.4,1.9-1.1,2.4c-0.7,0.6-1.8,0.8-3.3,0.8c-0.8,0-1.4-0.1-1.9-0.2c-0.5-0.1-1-0.3-1.5-0.5v-2.3
		c0.5,0.2,1.1,0.5,1.8,0.6c0.7,0.2,1.2,0.3,1.7,0.3c1,0,1.5-0.3,1.5-0.9c0-0.2-0.1-0.4-0.2-0.5c-0.1-0.1-0.4-0.3-0.7-0.5
		c-0.3-0.2-0.8-0.4-1.3-0.6c-0.8-0.3-1.4-0.6-1.8-0.9c-0.4-0.3-0.6-0.6-0.8-1c-0.2-0.4-0.3-0.8-0.3-1.4c0-0.9,0.4-1.6,1.1-2.1
		c0.7-0.5,1.7-0.8,3-0.8c1.2,0,2.5,0.3,3.6,0.8l-0.9,2c-0.5-0.2-1-0.4-1.5-0.5c-0.5-0.1-0.9-0.2-1.4-0.2c-0.8,0-1.3,0.2-1.3,0.7
		c0,0.3,0.1,0.5,0.4,0.7c0.3,0.2,0.9,0.5,1.8,0.8c0.8,0.3,1.4,0.6,1.8,0.9c0.4,0.3,0.7,0.6,0.8,1C57.6,53.1,57.7,53.5,57.7,54z"/>
	<path class="st1" d="M64.6,57.3c-1.7,0-3-0.5-3.9-1.4c-0.9-0.9-1.4-2.2-1.4-3.9c0-1.7,0.4-3.1,1.3-4c0.9-0.9,2.1-1.4,3.6-1.4
		c1.5,0,2.6,0.4,3.4,1.3s1.2,2,1.2,3.5v1.4h-6.7c0,0.8,0.3,1.4,0.7,1.9s1.1,0.7,1.9,0.7c0.6,0,1.2-0.1,1.8-0.2s1.1-0.3,1.7-0.6v2.2
		c-0.5,0.2-1,0.4-1.6,0.6C66.1,57.2,65.4,57.3,64.6,57.3z M64.2,48.6c-0.6,0-1.1,0.2-1.4,0.6c-0.3,0.4-0.5,0.9-0.6,1.6h4
		c0-0.7-0.2-1.2-0.5-1.6C65.3,48.8,64.8,48.6,64.2,48.6z"/>
	<path class="st1" d="M85.2,54.3h-1.6v2.8h-2.8v-2.8h-5.8v-2l5.9-8.8h2.6v8.5h1.6V54.3z M80.7,52.1v-2.3c0-0.4,0-0.9,0-1.7
		c0-0.7,0.1-1.2,0.1-1.3h-0.1c-0.2,0.5-0.5,1-0.8,1.5l-2.5,3.8H80.7z"/>
</g>
</svg>
